<svg xmlns="http://www.w3.org/2000/svg" viewBox="0 0 500 500"><g id="freepik--background-complete--inject-472"><path d="M444.71,349.14H264a5.87,5.87,0,0,1-5.86-5.86V80A5.87,5.87,0,0,1,264,74.15H444.71A5.87,5.87,0,0,1,450.57,80V343.28A5.87,5.87,0,0,1,444.71,349.14ZM264,74.4A5.61,5.61,0,0,0,258.35,80V343.28a5.61,5.61,0,0,0,5.61,5.61H444.71a5.61,5.61,0,0,0,5.61-5.61V80a5.61,5.61,0,0,0-5.61-5.61Z" style="fill:#f0f0f0"></path><path d="M236.28,349.14H55.53a5.87,5.87,0,0,1-5.86-5.86V80a5.87,5.87,0,0,1,5.86-5.86H236.28A5.87,5.87,0,0,1,242.14,80V343.28A5.87,5.87,0,0,1,236.28,349.14ZM55.53,74.4A5.61,5.61,0,0,0,49.92,80V343.28a5.61,5.61,0,0,0,5.61,5.61H236.28a5.61,5.61,0,0,0,5.61-5.61V80a5.61,5.61,0,0,0-5.61-5.61Z" style="fill:#f0f0f0"></path><rect y="410.21" width="500" height="0.25" style="fill:#f0f0f0"></rect><rect x="30.87" y="126.63" width="173.95" height="117.77" transform="translate(303.36 67.68) rotate(90)" style="fill:#f5f5f5"></rect><rect x="63.95" y="103.54" width="107.78" height="163.96" style="fill:#fafafa"></rect><polygon points="106.53 267.48 106.53 178.91 102.84 178.91 96.52 167.96 90.86 158.17 90.86 140.09 89.52 140.09 89.52 158.17 83.86 167.96 77.54 178.91 73.85 178.91 73.85 267.48 106.53 267.48" style="fill:#f5f5f5"></polygon><rect x="63.95" y="156.39" width="14.59" height="111.08" style="fill:#f5f5f5"></rect><polygon points="147.77 235.63 147.77 155.06 115.77 168.21 115.77 235.63 147.77 235.63" style="fill:#f5f5f5"></polygon><rect x="139.06" y="178.91" width="32.67" height="88.56" style="fill:#f0f0f0"></rect><rect x="142.75" y="184.33" width="5.07" height="2.38" style="fill:#f5f5f5"></rect><rect x="152.86" y="184.33" width="5.07" height="2.38" style="fill:#f5f5f5"></rect><rect x="162.98" y="184.33" width="5.07" height="2.38" style="fill:#f5f5f5"></rect><rect x="142.75" y="190.21" width="5.07" height="2.38" style="fill:#f5f5f5"></rect><rect x="152.86" y="190.21" width="5.07" height="2.38" style="fill:#f5f5f5"></rect><rect x="162.98" y="190.21" width="5.07" height="2.38" style="fill:#f5f5f5"></rect><rect x="142.75" y="196.1" width="5.07" height="2.38" style="fill:#f5f5f5"></rect><rect x="152.86" y="196.1" width="5.07" height="2.38" style="fill:#f5f5f5"></rect><rect x="162.98" y="196.1" width="5.07" height="2.38" style="fill:#f5f5f5"></rect><rect x="142.75" y="201.98" width="5.07" height="2.38" style="fill:#f5f5f5"></rect><rect x="152.86" y="201.98" width="5.07" height="2.38" style="fill:#f5f5f5"></rect><rect x="162.98" y="201.98" width="5.07" height="2.38" style="fill:#f5f5f5"></rect><rect x="142.75" y="207.87" width="5.07" height="2.38" style="fill:#f5f5f5"></rect><rect x="152.86" y="207.87" width="5.07" height="2.38" style="fill:#f5f5f5"></rect><rect x="162.98" y="207.87" width="5.07" height="2.38" style="fill:#f5f5f5"></rect><rect x="142.75" y="213.75" width="5.07" height="2.38" style="fill:#f5f5f5"></rect><rect x="152.86" y="213.75" width="5.07" height="2.38" style="fill:#f5f5f5"></rect><rect x="162.98" y="213.75" width="5.07" height="2.38" style="fill:#f5f5f5"></rect><rect x="142.75" y="219.64" width="5.07" height="2.38" style="fill:#f5f5f5"></rect><rect x="152.86" y="219.64" width="5.07" height="2.38" style="fill:#f5f5f5"></rect><rect x="162.98" y="219.64" width="5.07" height="2.38" style="fill:#f5f5f5"></rect><rect x="142.75" y="225.52" width="5.07" height="2.38" style="fill:#f5f5f5"></rect><rect x="152.86" y="225.52" width="5.07" height="2.38" style="fill:#f5f5f5"></rect><rect x="162.98" y="225.52" width="5.07" height="2.38" style="fill:#f5f5f5"></rect><rect x="142.75" y="231.41" width="5.07" height="2.38" style="fill:#f5f5f5"></rect><rect x="152.86" y="231.41" width="5.07" height="2.38" style="fill:#f5f5f5"></rect><rect x="162.98" y="231.41" width="5.07" height="2.38" style="fill:#f5f5f5"></rect><rect x="142.75" y="237.29" width="5.07" height="2.38" style="fill:#f5f5f5"></rect><rect x="152.86" y="237.29" width="5.07" height="2.38" style="fill:#f5f5f5"></rect><rect x="162.98" y="237.29" width="5.07" height="2.38" style="fill:#f5f5f5"></rect><rect x="142.75" y="243.17" width="5.07" height="2.38" style="fill:#f5f5f5"></rect><rect x="152.86" y="243.17" width="5.07" height="2.38" style="fill:#f5f5f5"></rect><rect x="162.98" y="243.17" width="5.07" height="2.38" style="fill:#f5f5f5"></rect><rect x="142.75" y="249.06" width="5.07" height="2.38" style="fill:#f5f5f5"></rect><rect x="152.86" y="249.06" width="5.07" height="2.38" style="fill:#f5f5f5"></rect><rect x="162.98" y="249.06" width="5.07" height="2.38" style="fill:#f5f5f5"></rect><rect x="63.95" y="178.91" width="32.67" height="88.56" style="fill:#f0f0f0"></rect><rect x="67.64" y="184.33" width="5.07" height="2.38" style="fill:#f5f5f5"></rect><rect x="77.75" y="184.33" width="5.07" height="2.38" style="fill:#f5f5f5"></rect><rect x="87.87" y="184.33" width="5.07" height="2.38" style="fill:#f5f5f5"></rect><rect x="67.64" y="190.21" width="5.07" height="2.38" style="fill:#f5f5f5"></rect><rect x="77.75" y="190.21" width="5.07" height="2.38" style="fill:#f5f5f5"></rect><rect x="87.87" y="190.21" width="5.07" height="2.38" style="fill:#f5f5f5"></rect><rect x="67.64" y="196.1" width="5.07" height="2.38" style="fill:#f5f5f5"></rect><rect x="77.75" y="196.1" width="5.07" height="2.38" style="fill:#f5f5f5"></rect><rect x="87.87" y="196.1" width="5.07" height="2.38" style="fill:#f5f5f5"></rect><rect x="67.64" y="201.98" width="5.07" height="2.38" style="fill:#f5f5f5"></rect><rect x="77.75" y="201.98" width="5.07" height="2.38" style="fill:#f5f5f5"></rect><rect x="87.87" y="201.98" width="5.07" height="2.38" style="fill:#f5f5f5"></rect><rect x="67.64" y="207.87" width="5.07" height="2.38" style="fill:#f5f5f5"></rect><rect x="77.75" y="207.87" width="5.07" height="2.38" style="fill:#f5f5f5"></rect><rect x="87.87" y="207.87" width="5.07" height="2.38" style="fill:#f5f5f5"></rect><rect x="67.64" y="213.75" width="5.07" height="2.38" style="fill:#f5f5f5"></rect><rect x="77.75" y="213.75" width="5.07" height="2.38" style="fill:#f5f5f5"></rect><rect x="87.87" y="213.75" width="5.07" height="2.38" style="fill:#f5f5f5"></rect><rect x="67.64" y="219.64" width="5.07" height="2.38" style="fill:#f5f5f5"></rect><rect x="77.75" y="219.64" width="5.07" height="2.38" style="fill:#f5f5f5"></rect><rect x="87.87" y="219.64" width="5.07" height="2.38" style="fill:#f5f5f5"></rect><rect x="67.64" y="225.52" width="5.07" height="2.38" style="fill:#f5f5f5"></rect><rect x="77.75" y="225.52" width="5.07" height="2.38" style="fill:#f5f5f5"></rect><rect x="87.87" y="225.52" width="5.07" height="2.38" style="fill:#f5f5f5"></rect><rect x="67.64" y="231.41" width="5.07" height="2.38" style="fill:#f5f5f5"></rect><rect x="77.75" y="231.41" width="5.07" height="2.38" style="fill:#f5f5f5"></rect><rect x="87.87" y="231.41" width="5.07" height="2.38" style="fill:#f5f5f5"></rect><rect x="67.64" y="237.29" width="5.07" height="2.38" style="fill:#f5f5f5"></rect><rect x="77.75" y="237.29" width="5.07" height="2.38" style="fill:#f5f5f5"></rect><rect x="87.87" y="237.29" width="5.07" height="2.38" style="fill:#f5f5f5"></rect><rect x="67.64" y="243.17" width="5.07" height="2.38" style="fill:#f5f5f5"></rect><rect x="77.75" y="243.17" width="5.07" height="2.38" style="fill:#f5f5f5"></rect><rect x="87.87" y="243.17" width="5.07" height="2.38" style="fill:#f5f5f5"></rect><rect x="67.64" y="249.06" width="5.07" height="2.38" style="fill:#f5f5f5"></rect><rect x="77.75" y="249.06" width="5.07" height="2.38" style="fill:#f5f5f5"></rect><rect x="87.87" y="249.06" width="5.07" height="2.38" style="fill:#f5f5f5"></rect><polygon points="155.4 178.91 142.75 178.91 149.07 167.96 155.4 157 161.72 167.96 168.04 178.91 155.4 178.91" style="fill:#f0f0f0"></polygon><rect x="154.72" y="140.09" width="1.34" height="24.97" style="fill:#f0f0f0"></rect><rect x="101.33" y="184.33" width="35.02" height="83.15" style="fill:#f0f0f0"></rect><rect x="103.9" y="181.49" width="13.21" height="11.28" style="fill:#f0f0f0"></rect><rect x="105.09" y="180.65" width="3.54" height="10.13" style="fill:#f0f0f0"></rect><rect x="112.46" y="180.65" width="3.54" height="10.13" style="fill:#f0f0f0"></rect><rect x="126.24" y="181.53" width="7.87" height="7.87" style="fill:#f0f0f0"></rect><rect x="106.47" y="191.4" width="5.07" height="2.38" style="fill:#f5f5f5"></rect><rect x="116.58" y="191.4" width="5.07" height="2.38" style="fill:#f5f5f5"></rect><rect x="126.7" y="191.4" width="5.07" height="2.38" style="fill:#f5f5f5"></rect><rect x="106.47" y="197.29" width="5.07" height="2.38" style="fill:#f5f5f5"></rect><rect x="116.58" y="197.29" width="5.07" height="2.38" style="fill:#f5f5f5"></rect><rect x="126.7" y="197.29" width="5.07" height="2.38" style="fill:#f5f5f5"></rect><rect x="106.47" y="203.17" width="5.07" height="2.38" style="fill:#f5f5f5"></rect><rect x="116.58" y="203.17" width="5.07" height="2.38" style="fill:#f5f5f5"></rect><rect x="126.7" y="203.17" width="5.07" height="2.38" style="fill:#f5f5f5"></rect><rect x="106.47" y="209.06" width="5.07" height="2.38" style="fill:#f5f5f5"></rect><rect x="116.58" y="209.06" width="5.07" height="2.38" style="fill:#f5f5f5"></rect><rect x="126.7" y="209.06" width="5.07" height="2.38" style="fill:#f5f5f5"></rect><rect x="106.47" y="214.94" width="5.07" height="2.38" style="fill:#f5f5f5"></rect><rect x="116.58" y="214.94" width="5.07" height="2.38" style="fill:#f5f5f5"></rect><rect x="126.7" y="214.94" width="5.07" height="2.38" style="fill:#f5f5f5"></rect><rect x="106.47" y="220.83" width="5.07" height="2.38" style="fill:#f5f5f5"></rect><rect x="116.58" y="220.83" width="5.07" height="2.38" style="fill:#f5f5f5"></rect><rect x="126.7" y="220.83" width="5.07" height="2.38" style="fill:#f5f5f5"></rect><rect x="106.47" y="226.71" width="5.07" height="2.38" style="fill:#f5f5f5"></rect><rect x="116.58" y="226.71" width="5.07" height="2.38" style="fill:#f5f5f5"></rect><rect x="126.7" y="226.71" width="5.07" height="2.38" style="fill:#f5f5f5"></rect><rect x="106.47" y="232.59" width="5.07" height="2.38" style="fill:#f5f5f5"></rect><rect x="116.58" y="232.59" width="5.07" height="2.38" style="fill:#f5f5f5"></rect><rect x="126.7" y="232.59" width="5.07" height="2.38" style="fill:#f5f5f5"></rect><rect x="106.47" y="238.48" width="5.07" height="2.38" style="fill:#f5f5f5"></rect><rect x="116.58" y="238.48" width="5.07" height="2.38" style="fill:#f5f5f5"></rect><rect x="126.7" y="238.48" width="5.07" height="2.38" style="fill:#f5f5f5"></rect><rect x="106.47" y="244.36" width="5.07" height="2.38" style="fill:#f5f5f5"></rect><rect x="116.58" y="244.36" width="5.07" height="2.38" style="fill:#f5f5f5"></rect><rect x="126.7" y="244.36" width="5.07" height="2.38" style="fill:#f5f5f5"></rect><rect x="106.47" y="250.25" width="5.07" height="2.38" style="fill:#f5f5f5"></rect><rect x="116.58" y="250.25" width="5.07" height="2.38" style="fill:#f5f5f5"></rect><rect x="126.7" y="250.25" width="5.07" height="2.38" style="fill:#f5f5f5"></rect><rect x="106.47" y="256.13" width="5.07" height="2.38" style="fill:#f5f5f5"></rect><rect x="116.58" y="256.13" width="5.07" height="2.38" style="fill:#f5f5f5"></rect><rect x="126.7" y="256.13" width="5.07" height="2.38" style="fill:#f5f5f5"></rect><polygon points="164.57 103.54 63.95 204.16 63.95 175.26 135.68 103.54 164.57 103.54" style="fill:#fff;opacity:0.2"></polygon><polygon points="171.73 139.97 171.73 160.59 64.83 267.5 63.95 267.5 63.95 247.75 171.73 139.97" style="fill:#fff;opacity:0.2"></polygon><rect x="294.44" y="127.87" width="173.95" height="117.77" transform="translate(568.17 -194.66) rotate(90)" style="fill:#f5f5f5"></rect><rect x="327.52" y="104.77" width="107.78" height="163.96" style="fill:#fafafa"></rect><polygon points="370.1 268.71 370.1 180.15 366.41 180.15 360.09 169.19 354.44 159.4 354.44 141.32 353.09 141.32 353.09 159.4 347.44 169.19 341.11 180.15 337.43 180.15 337.43 268.71 370.1 268.71" style="fill:#f5f5f5"></polygon><rect x="327.52" y="157.63" width="14.59" height="111.08" style="fill:#f5f5f5"></rect><polygon points="411.34 236.86 411.34 156.29 379.34 169.44 379.34 236.86 411.34 236.86" style="fill:#f5f5f5"></polygon><rect x="402.63" y="180.15" width="32.67" height="88.56" style="fill:#f0f0f0"></rect><rect x="406.32" y="185.56" width="5.07" height="2.38" style="fill:#f5f5f5"></rect><rect x="416.43" y="185.56" width="5.07" height="2.38" style="fill:#f5f5f5"></rect><rect x="426.55" y="185.56" width="5.07" height="2.38" style="fill:#f5f5f5"></rect><rect x="406.32" y="191.45" width="5.07" height="2.38" style="fill:#f5f5f5"></rect><rect x="416.43" y="191.45" width="5.07" height="2.38" style="fill:#f5f5f5"></rect><rect x="426.55" y="191.45" width="5.07" height="2.38" style="fill:#f5f5f5"></rect><rect x="406.32" y="197.33" width="5.07" height="2.38" style="fill:#f5f5f5"></rect><rect x="416.43" y="197.33" width="5.07" height="2.38" style="fill:#f5f5f5"></rect><rect x="426.55" y="197.33" width="5.07" height="2.38" style="fill:#f5f5f5"></rect><rect x="406.32" y="203.22" width="5.07" height="2.38" style="fill:#f5f5f5"></rect><rect x="416.43" y="203.22" width="5.07" height="2.38" style="fill:#f5f5f5"></rect><rect x="426.55" y="203.22" width="5.07" height="2.38" style="fill:#f5f5f5"></rect><rect x="406.32" y="209.1" width="5.07" height="2.38" style="fill:#f5f5f5"></rect><rect x="416.43" y="209.1" width="5.07" height="2.38" style="fill:#f5f5f5"></rect><rect x="426.55" y="209.1" width="5.07" height="2.38" style="fill:#f5f5f5"></rect><rect x="406.32" y="214.99" width="5.07" height="2.38" style="fill:#f5f5f5"></rect><rect x="416.43" y="214.99" width="5.07" height="2.38" style="fill:#f5f5f5"></rect><rect x="426.55" y="214.99" width="5.07" height="2.38" style="fill:#f5f5f5"></rect><rect x="406.32" y="220.87" width="5.07" height="2.38" style="fill:#f5f5f5"></rect><rect x="416.43" y="220.87" width="5.07" height="2.38" style="fill:#f5f5f5"></rect><rect x="426.55" y="220.87" width="5.07" height="2.38" style="fill:#f5f5f5"></rect><rect x="406.32" y="226.76" width="5.07" height="2.38" style="fill:#f5f5f5"></rect><rect x="416.43" y="226.76" width="5.07" height="2.38" style="fill:#f5f5f5"></rect><rect x="426.55" y="226.76" width="5.07" height="2.38" style="fill:#f5f5f5"></rect><rect x="406.32" y="232.64" width="5.07" height="2.38" style="fill:#f5f5f5"></rect><rect x="416.43" y="232.64" width="5.07" height="2.38" style="fill:#f5f5f5"></rect><rect x="426.55" y="232.64" width="5.07" height="2.38" style="fill:#f5f5f5"></rect><rect x="406.32" y="238.52" width="5.07" height="2.38" style="fill:#f5f5f5"></rect><rect x="416.43" y="238.52" width="5.07" height="2.38" style="fill:#f5f5f5"></rect><rect x="426.55" y="238.52" width="5.07" height="2.38" style="fill:#f5f5f5"></rect><rect x="406.32" y="244.41" width="5.07" height="2.38" style="fill:#f5f5f5"></rect><rect x="416.43" y="244.41" width="5.07" height="2.38" style="fill:#f5f5f5"></rect><rect x="426.55" y="244.41" width="5.07" height="2.38" style="fill:#f5f5f5"></rect><rect x="406.32" y="250.29" width="5.07" height="2.38" style="fill:#f5f5f5"></rect><rect x="416.43" y="250.29" width="5.07" height="2.38" style="fill:#f5f5f5"></rect><rect x="426.55" y="250.29" width="5.07" height="2.38" style="fill:#f5f5f5"></rect><rect x="327.52" y="180.15" width="32.67" height="88.56" style="fill:#f0f0f0"></rect><rect x="331.21" y="185.56" width="5.07" height="2.38" style="fill:#f5f5f5"></rect><rect x="341.33" y="185.56" width="5.07" height="2.38" style="fill:#f5f5f5"></rect><rect x="351.44" y="185.56" width="5.07" height="2.38" style="fill:#f5f5f5"></rect><rect x="331.21" y="191.45" width="5.07" height="2.38" style="fill:#f5f5f5"></rect><rect x="341.33" y="191.45" width="5.07" height="2.38" style="fill:#f5f5f5"></rect><rect x="351.44" y="191.45" width="5.07" height="2.38" style="fill:#f5f5f5"></rect><rect x="331.21" y="197.33" width="5.07" height="2.38" style="fill:#f5f5f5"></rect><rect x="341.33" y="197.33" width="5.07" height="2.38" style="fill:#f5f5f5"></rect><rect x="351.44" y="197.33" width="5.07" height="2.38" style="fill:#f5f5f5"></rect><rect x="331.21" y="203.22" width="5.07" height="2.38" style="fill:#f5f5f5"></rect><rect x="341.33" y="203.22" width="5.07" height="2.38" style="fill:#f5f5f5"></rect><rect x="351.44" y="203.22" width="5.07" height="2.38" style="fill:#f5f5f5"></rect><rect x="331.21" y="209.1" width="5.07" height="2.38" style="fill:#f5f5f5"></rect><rect x="341.33" y="209.1" width="5.07" height="2.38" style="fill:#f5f5f5"></rect><rect x="351.44" y="209.1" width="5.07" height="2.38" style="fill:#f5f5f5"></rect><rect x="331.21" y="214.99" width="5.07" height="2.38" style="fill:#f5f5f5"></rect><rect x="341.33" y="214.99" width="5.07" height="2.38" style="fill:#f5f5f5"></rect><rect x="351.44" y="214.99" width="5.07" height="2.38" style="fill:#f5f5f5"></rect><rect x="331.21" y="220.87" width="5.07" height="2.38" style="fill:#f5f5f5"></rect><rect x="341.33" y="220.87" width="5.07" height="2.38" style="fill:#f5f5f5"></rect><rect x="351.44" y="220.87" width="5.07" height="2.38" style="fill:#f5f5f5"></rect><rect x="331.21" y="226.76" width="5.07" height="2.38" style="fill:#f5f5f5"></rect><rect x="341.33" y="226.76" width="5.07" height="2.38" style="fill:#f5f5f5"></rect><rect x="351.44" y="226.76" width="5.07" height="2.38" style="fill:#f5f5f5"></rect><rect x="331.21" y="232.64" width="5.07" height="2.38" style="fill:#f5f5f5"></rect><rect x="341.33" y="232.64" width="5.07" height="2.38" style="fill:#f5f5f5"></rect><rect x="351.44" y="232.64" width="5.07" height="2.38" style="fill:#f5f5f5"></rect><rect x="331.21" y="238.52" width="5.07" height="2.38" style="fill:#f5f5f5"></rect><rect x="341.33" y="238.52" width="5.07" height="2.38" style="fill:#f5f5f5"></rect><rect x="351.44" y="238.52" width="5.07" height="2.38" style="fill:#f5f5f5"></rect><rect x="331.21" y="244.41" width="5.07" height="2.38" style="fill:#f5f5f5"></rect><rect x="341.33" y="244.41" width="5.07" height="2.38" style="fill:#f5f5f5"></rect><rect x="351.44" y="244.41" width="5.07" height="2.38" style="fill:#f5f5f5"></rect><rect x="331.21" y="250.29" width="5.07" height="2.38" style="fill:#f5f5f5"></rect><rect x="341.33" y="250.29" width="5.07" height="2.38" style="fill:#f5f5f5"></rect><rect x="351.44" y="250.29" width="5.07" height="2.38" style="fill:#f5f5f5"></rect><polygon points="418.97 180.15 406.32 180.15 412.64 169.19 418.97 158.24 425.29 169.19 431.62 180.15 418.97 180.15" style="fill:#f0f0f0"></polygon><rect x="418.3" y="141.32" width="1.34" height="24.97" style="fill:#f0f0f0"></rect><rect x="364.9" y="185.56" width="35.02" height="83.15" style="fill:#f0f0f0"></rect><rect x="367.48" y="182.72" width="13.21" height="11.28" style="fill:#f0f0f0"></rect><rect x="368.66" y="181.89" width="3.54" height="10.13" style="fill:#f0f0f0"></rect><rect x="376.04" y="181.89" width="3.54" height="10.13" style="fill:#f0f0f0"></rect><rect x="389.82" y="182.76" width="7.87" height="7.87" style="fill:#f0f0f0"></rect><rect x="370.04" y="192.64" width="5.07" height="2.38" style="fill:#f5f5f5"></rect><rect x="380.16" y="192.64" width="5.07" height="2.38" style="fill:#f5f5f5"></rect><rect x="390.27" y="192.64" width="5.07" height="2.38" style="fill:#f5f5f5"></rect><rect x="370.04" y="198.52" width="5.07" height="2.38" style="fill:#f5f5f5"></rect><rect x="380.16" y="198.52" width="5.07" height="2.38" style="fill:#f5f5f5"></rect><rect x="390.27" y="198.52" width="5.07" height="2.38" style="fill:#f5f5f5"></rect><rect x="370.04" y="204.41" width="5.07" height="2.38" style="fill:#f5f5f5"></rect><rect x="380.16" y="204.41" width="5.07" height="2.38" style="fill:#f5f5f5"></rect><rect x="390.27" y="204.41" width="5.07" height="2.38" style="fill:#f5f5f5"></rect><rect x="370.04" y="210.29" width="5.07" height="2.38" style="fill:#f5f5f5"></rect><rect x="380.16" y="210.29" width="5.07" height="2.38" style="fill:#f5f5f5"></rect><rect x="390.27" y="210.29" width="5.07" height="2.38" style="fill:#f5f5f5"></rect><rect x="370.04" y="216.18" width="5.07" height="2.38" style="fill:#f5f5f5"></rect><rect x="380.16" y="216.18" width="5.07" height="2.38" style="fill:#f5f5f5"></rect><rect x="390.27" y="216.18" width="5.07" height="2.38" style="fill:#f5f5f5"></rect><rect x="370.04" y="222.06" width="5.07" height="2.38" style="fill:#f5f5f5"></rect><rect x="380.16" y="222.06" width="5.07" height="2.38" style="fill:#f5f5f5"></rect><rect x="390.27" y="222.06" width="5.07" height="2.38" style="fill:#f5f5f5"></rect><rect x="370.04" y="227.94" width="5.07" height="2.38" style="fill:#f5f5f5"></rect><rect x="380.16" y="227.94" width="5.07" height="2.38" style="fill:#f5f5f5"></rect><rect x="390.27" y="227.94" width="5.07" height="2.38" style="fill:#f5f5f5"></rect><rect x="370.04" y="233.83" width="5.07" height="2.38" style="fill:#f5f5f5"></rect><rect x="380.16" y="233.83" width="5.07" height="2.38" style="fill:#f5f5f5"></rect><rect x="390.27" y="233.83" width="5.07" height="2.38" style="fill:#f5f5f5"></rect><rect x="370.04" y="239.71" width="5.07" height="2.38" style="fill:#f5f5f5"></rect><rect x="380.16" y="239.71" width="5.07" height="2.38" style="fill:#f5f5f5"></rect><rect x="390.27" y="239.71" width="5.07" height="2.38" style="fill:#f5f5f5"></rect><rect x="370.04" y="245.6" width="5.07" height="2.38" style="fill:#f5f5f5"></rect><rect x="380.16" y="245.6" width="5.07" height="2.38" style="fill:#f5f5f5"></rect><rect x="390.27" y="245.6" width="5.07" height="2.38" style="fill:#f5f5f5"></rect><rect x="370.04" y="251.48" width="5.07" height="2.38" style="fill:#f5f5f5"></rect><rect x="380.16" y="251.48" width="5.07" height="2.38" style="fill:#f5f5f5"></rect><rect x="390.27" y="251.48" width="5.07" height="2.38" style="fill:#f5f5f5"></rect><rect x="370.04" y="257.37" width="5.07" height="2.38" style="fill:#f5f5f5"></rect><rect x="380.16" y="257.37" width="5.07" height="2.38" style="fill:#f5f5f5"></rect><rect x="390.27" y="257.37" width="5.07" height="2.38" style="fill:#f5f5f5"></rect><polygon points="428.14 104.77 327.52 205.39 327.52 176.5 399.25 104.77 428.14 104.77" style="fill:#fff;opacity:0.2"></polygon><polygon points="435.31 141.2 435.31 161.82 328.4 268.73 327.52 268.73 327.52 248.99 435.31 141.2" style="fill:#fff;opacity:0.2"></polygon><path d="M278.37,302H105.17a5.31,5.31,0,0,0,5.31,5.31H273.06a5.31,5.31,0,0,0,5.31-5.31Z" style="fill:#f0f0f0"></path><rect x="140.75" y="352.21" width="103.6" height="4.91" style="fill:#f0f0f0"></rect><polygon points="240.68 410.34 254.8 307.3 249.84 307.3 235.72 410.34 240.68 410.34" style="fill:#f0f0f0"></polygon><polygon points="252.29 410.34 237.94 307.3 242.9 307.3 257.25 410.34 252.29 410.34" style="fill:#f0f0f0"></polygon><polygon points="132.83 410.34 147.55 307.3 142.59 307.3 127.87 410.34 132.83 410.34" style="fill:#f0f0f0"></polygon><polygon points="144.44 410.34 130.32 307.3 135.28 307.3 149.4 410.34 144.44 410.34" style="fill:#f0f0f0"></polygon><rect x="99.36" y="293.47" width="184.82" height="8.55" style="fill:#f5f5f5"></rect><path d="M166,293.5h80.2l.87-2c.55-1.23-.88-2.47-2.86-2.47h-74a3.09,3.09,0,0,0-2.86,1.4Z" style="fill:#e0e0e0"></path><path d="M268.16,237.67l-10.27,43.42a2.56,2.56,0,0,1-2.49,2H192.15a2.57,2.57,0,0,1-2.49-3.16l10.26-43.42a2.58,2.58,0,0,1,2.5-2h63.24A2.56,2.56,0,0,1,268.16,237.67Z" style="fill:#f0f0f0"></path><path d="M237.43,260.49a5.67,5.67,0,0,1-5.49,4.95,4.35,4.35,0,0,1-4.41-4.95,5.68,5.68,0,0,1,5.5-5A4.35,4.35,0,0,1,237.43,260.49Z" style="fill:#e0e0e0"></path><path d="M204.93,234.52,194,283.07h-1.85a2.57,2.57,0,0,1-2.49-3.16l10.26-43.42a2.58,2.58,0,0,1,2.5-2Z" style="fill:#e0e0e0"></path><polygon points="223.25 283.07 221.09 293.38 227.43 293.38 229.58 283.07 223.25 283.07" style="fill:#e0e0e0"></polygon><path d="M211.84,291.64l1.3-1.83a2.46,2.46,0,0,1,2-1h17.38a2.45,2.45,0,0,1,2.18,1.32l.88,1.67a1.17,1.17,0,0,1-1,1.72H212.8A1.17,1.17,0,0,1,211.84,291.64Z" style="fill:#e0e0e0"></path><path d="M394.54,387.46s-8.44,1.87-7.18-4,1.16-8.06-2.27-10.73-6.88-4-4.26-8.24-2.35-7.53-4.93-9.81.33-4,1-8.31-4-3.67-4.32-9.1,5.16-11.78.41-19.25c0,0,6.37,3.3,8.47,9.11s.4,10.28,4.16,12.49,6.12,6,4.85,9.94.53,6,3.62,8.85,2.26,4,1.88,7.48.39,2.67,3.92,7.44S403.52,385.9,394.54,387.46Z" style="fill:#f0f0f0"></path><path d="M395.74,387.2l0-.09-16.89-51.25a.42.42,0,0,1,.27-.53h0a.43.43,0,0,1,.52.27l16.89,51.26a.5.5,0,0,1,0,.12Z" style="fill:#e0e0e0"></path><path d="M409.77,387.36s8.39,1.86,7.15-4-1.16-8,2.25-10.68,6.85-4,4.24-8.19,2.34-7.49,4.9-9.76-.33-4-1-8.27,3.94-3.65,4.3-9-5.12-11.71-.41-19.15c0,0-6.33,3.29-8.42,9.06s-.4,10.23-4.14,12.43-6.09,6-4.82,9.88-.53,6-3.6,8.8-2.25,4-1.87,7.45-.39,2.65-3.9,7.4S400.84,385.8,409.77,387.36Z" style="fill:#f0f0f0"></path><path d="M407.8,386.87a.59.59,0,0,1,0-.13l16.8-51a.43.43,0,0,1,.52-.27h0a.4.4,0,0,1,.26.52l-16.79,51a.41.41,0,0,1-.05.09Z" style="fill:#e0e0e0"></path><path d="M400.45,386.29s-9.66-.8-6.36-6.69,3.92-8.25,1.13-12.25-6-6.57-1.82-10.24,0-8.85-2-12.14,1.68-4.18,3.84-8.57-3-5.24-1.6-11.18,9.43-10.9,6.83-20.48c0,0,5.73,5.65,6,12.56s-3,11.16.31,14.77,4.56,8.48,1.89,12.25-1.42,6.6.94,10.68,1.1,5-.47,8.64-.47,3,1.73,9.27S410.59,387.6,400.45,386.29Z" style="fill:#f5f5f5"></path><path d="M401.82,386.41a.41.41,0,0,1,0-.11l-1.07-60.51a.48.48,0,0,1,.46-.48h0a.47.47,0,0,1,.47.47l1.07,60.5a.59.59,0,0,1,0,.14Z" style="fill:#e0e0e0"></path><path d="M426.75,381.62H379.51a1.94,1.94,0,0,0-1.82,2.62l.7,1.86.44,1.17,1.27,3.37.44,1.18,1.3,3.45.44,1.18,5.2,13.8h31.3l5.19-13.8.45-1.18,1.3-3.45.44-1.18,1.27-3.37.44-1.17.7-1.86A1.94,1.94,0,0,0,426.75,381.62Z" style="fill:#e6e6e6"></path></g><g id="freepik--Shadow--inject-472"><ellipse cx="245.98" cy="433.59" rx="194.32" ry="6.07" style="fill:#f0f0f0"></ellipse></g><g id="freepik--Plant--inject-472"><polygon points="115.46 396.48 107.24 433.43 85.16 433.43 76.94 396.48 115.46 396.48" style="fill:#407BFF"></polygon><polygon points="115.46 396.48 107.24 433.43 85.16 433.43 76.94 396.48 115.46 396.48" style="fill:#fff;opacity:0.5"></polygon><rect x="75" y="396.48" width="42.12" height="4.52" style="fill:#407BFF"></rect><rect x="75" y="396.48" width="42.12" height="4.52" style="fill:#fff;opacity:0.7000000000000001"></rect><path d="M96.44,396.48h1c.5-30.34-7.87-52.11-8-52.35s-1,.1-.91.35S97,366.33,96.44,396.48Z" style="fill:#407BFF"></path><path d="M94.49,365.87s-3.34-10.21,15.08-13.76C109.57,352.11,109.23,370,94.49,365.87Z" style="fill:#407BFF"></path><path d="M96.44,382.75S93.09,372.54,111.52,369C111.52,369,111.18,386.88,96.44,382.75Z" style="fill:#407BFF"></path><path d="M95.79,372.61s-1.08-10.69-19.36-6.47C76.43,366.14,84,382.36,95.79,372.61Z" style="fill:#407BFF"></path><path d="M96.89,388s-1.08-10.69-19.36-6.47C77.53,381.52,85.09,397.74,96.89,388Z" style="fill:#407BFF"></path><path d="M92.43,356.06s-10.72.74-9.64-18C82.79,338.07,100.05,342.78,92.43,356.06Z" style="fill:#407BFF"></path></g><g id="freepik--Gears--inject-472"><path d="M348.45,304.42a10.19,10.19,0,0,0,1.86,1.91L348.76,310l4,1.7,1.49-3.53a9.61,9.61,0,0,0,2.87.19l1.68,4.15,4.06-1.65-1.56-3.82a10,10,0,0,0,2.79-2.44l3.68,1.55,1.7-4L366,300.64a9.51,9.51,0,0,0,.12-3.4l3.44-1.4-1.65-4-3.32,1.35a9.65,9.65,0,0,0-2.77-2.78l1.48-3.52-4-1.7-1.55,3.68a9.55,9.55,0,0,0-2.67,0l-1.59-3.92-4.05,1.65,1.54,3.8a10,10,0,0,0-2.78,2.77l-3.52-1.48-1.7,4,3.68,1.55a9.74,9.74,0,0,0,.08,3.19l-3.8,1.55,1.65,4.05Zm4.21-7.42a4,4,0,1,1,2.14,5.26A4,4,0,0,1,352.66,297Z" style="fill:#407BFF"></path><g style="opacity:0.5"><path d="M348.45,304.42a10.19,10.19,0,0,0,1.86,1.91L348.76,310l4,1.7,1.49-3.53a9.61,9.61,0,0,0,2.87.19l1.68,4.15,4.06-1.65-1.56-3.82a10,10,0,0,0,2.79-2.44l3.68,1.55,1.7-4L366,300.64a9.51,9.51,0,0,0,.12-3.4l3.44-1.4-1.65-4-3.32,1.35a9.65,9.65,0,0,0-2.77-2.78l1.48-3.52-4-1.7-1.55,3.68a9.55,9.55,0,0,0-2.67,0l-1.59-3.92-4.05,1.65,1.54,3.8a10,10,0,0,0-2.78,2.77l-3.52-1.48-1.7,4,3.68,1.55a9.74,9.74,0,0,0,.08,3.19l-3.8,1.55,1.65,4.05Zm4.21-7.42a4,4,0,1,1,2.14,5.26A4,4,0,0,1,352.66,297Z" style="fill:#fff"></path></g><path d="M118.48,148.11a9.89,9.89,0,0,0,1.86,1.91l-1.55,3.68,4,1.7,1.49-3.52a9.61,9.61,0,0,0,2.87.19l1.68,4.14,4.06-1.65-1.56-3.82a9.82,9.82,0,0,0,2.79-2.44l3.68,1.56,1.7-4L136,144.34a9.8,9.8,0,0,0,.12-3.41l3.44-1.39-1.65-4.06-3.32,1.35a10,10,0,0,0-2.77-2.78l1.48-3.52-4-1.7-1.55,3.68a10,10,0,0,0-2.67,0l-1.59-3.91-4,1.64L121,134a10.08,10.08,0,0,0-2.78,2.78l-3.52-1.49-1.7,4,3.68,1.55a9.75,9.75,0,0,0,.08,3.19l-3.8,1.54,1.65,4.06Zm4.21-7.41a4,4,0,1,1,2.14,5.25A4,4,0,0,1,122.69,140.7Z" style="fill:#407BFF"></path><g style="opacity:0.5"><path d="M118.48,148.11a9.89,9.89,0,0,0,1.86,1.91l-1.55,3.68,4,1.7,1.49-3.52a9.61,9.61,0,0,0,2.87.19l1.68,4.14,4.06-1.65-1.56-3.82a9.82,9.82,0,0,0,2.79-2.44l3.68,1.56,1.7-4L136,144.34a9.8,9.8,0,0,0,.12-3.41l3.44-1.39-1.65-4.06-3.32,1.35a10,10,0,0,0-2.77-2.78l1.48-3.52-4-1.7-1.55,3.68a10,10,0,0,0-2.67,0l-1.59-3.91-4,1.64L121,134a10.08,10.08,0,0,0-2.78,2.78l-3.52-1.49-1.7,4,3.68,1.55a9.75,9.75,0,0,0,.08,3.19l-3.8,1.54,1.65,4.06Zm4.21-7.41a4,4,0,1,1,2.14,5.25A4,4,0,0,1,122.69,140.7Z" style="fill:#fff"></path></g></g><g id="freepik--Puzzle--inject-472"><path d="M258.4,142.58V176.8H155.74V74.15H165s6.31,1.8,8.4,6.81c1.88,4.46-.93,9.84-1.57,11l-.11.19s0,0,0,0h0a15.59,15.59,0,1,0,27,0s0,0,0,0a.56.56,0,0,1-.11-.18c-.65-1.14-3.46-6.52-1.59-11,2.11-5,8.41-6.81,8.41-6.81h53V102.2s-1.81,6.31-6.81,8.41c-4.46,1.88-9.84-.94-11-1.57l-.19-.11s0,0,0,0a15.35,15.35,0,0,0-7.82-2.1,15.59,15.59,0,1,0,7.82,29.07l0,0,.18-.11c1.14-.64,6.52-3.46,11-1.58C256.59,136.27,258.4,142.58,258.4,142.58Z" style="fill:#407BFF"></path><g style="opacity:0.7000000000000001"><path d="M258.4,142.58V176.8H155.74V74.15H165s6.31,1.8,8.4,6.81c1.88,4.46-.93,9.84-1.57,11l-.11.19s0,0,0,0h0a15.59,15.59,0,1,0,27,0s0,0,0,0a.56.56,0,0,1-.11-.18c-.65-1.14-3.46-6.52-1.59-11,2.11-5,8.41-6.81,8.41-6.81h53V102.2s-1.81,6.31-6.81,8.41c-4.46,1.88-9.84-.94-11-1.57l-.19-.11s0,0,0,0a15.35,15.35,0,0,0-7.82-2.1,15.59,15.59,0,1,0,7.82,29.07l0,0,.18-.11c1.14-.64,6.52-3.46,11-1.58C256.59,136.27,258.4,142.58,258.4,142.58Z" style="fill:#fff"></path></g><path d="M361,74.15V176.7H347.28c-1-.34-6.34-2.25-8.23-6.75s.93-9.83,1.57-11l.12-.19s0,0,0,0h0a15.41,15.41,0,0,0,2.1-7.81,15.57,15.57,0,1,0-29.05,7.82l0,0,.12.19c.64,1.13,3.44,6.51,1.57,11s-7.19,6.41-8.23,6.75H258.4V142.52s-1.8-6.31-6.8-8.41c-4.45-1.86-9.83.94-11,1.58l-.18.11,0,0a15.58,15.58,0,1,1-7.82-29,15.41,15.41,0,0,1,7.81,2.1h0a.9.9,0,0,0,.18.12c1.14.64,6.52,3.45,11,1.57,5-2.09,6.8-8.4,6.8-8.4v-28Z" style="fill:#407BFF"></path><path d="M361,74.15V176.7H347.28c-1-.34-6.34-2.25-8.23-6.75s.93-9.83,1.57-11l.12-.19s0,0,0,0h0a15.41,15.41,0,0,0,2.1-7.81,15.57,15.57,0,1,0-29.05,7.82l0,0,.12.19c.64,1.13,3.44,6.51,1.57,11s-7.19,6.41-8.23,6.75H258.4V142.52s-1.8-6.31-6.8-8.41c-4.45-1.86-9.83.94-11,1.58l-.18.11,0,0a15.58,15.58,0,1,1-7.82-29,15.41,15.41,0,0,1,7.81,2.1h0a.9.9,0,0,0,.18.12c1.14.64,6.52,3.45,11,1.57,5-2.09,6.8-8.4,6.8-8.4v-28Z" style="fill:#fff;opacity:0.5"></path></g><g id="freepik--Characters--inject-472"><path d="M289.8,187.79l-7.64,18.28c-1.28,3-2.59,6-3.91,9-.66,1.47-1.35,2.92-2,4.31s-1.39,2.77-2.06,3.89a7.91,7.91,0,0,1-.59.92h0l-1,.47-1.09.49-2.22,1L260.11,230c-6.15,2.61-12.31,5.3-18.41,8.13l2.16,6.72c6.65-1.27,13.21-2.75,19.76-4.42,3.27-.86,6.54-1.71,9.82-2.7l2.49-.75,1.27-.4,1.34-.47.51-.18.23-.1.92-.4.48-.22.56-.35.48-.33a12.43,12.43,0,0,0,1.22-1.07c.4-.41.73-.78,1-1.13.54-.65.94-1.21,1.34-1.77.67-1,1.26-1.92,1.81-2.84.41-.67.79-1.32,1.16-2,.87-1.57,1.69-3.12,2.48-4.66,1.6-3.09,3.05-6.18,4.47-9.28,2.82-6.21,5.45-12.41,7.84-18.81ZM274,224l-.05,0,0,0L274,224l.08-.05Z" style="fill:#263238"></path><path d="M243.38,238.87a6.68,6.68,0,0,0-4.07-2c-2.23,0-4-.68-5.66-.61s.1,1.47,1.19,2,2.32,1.18,1.78,1.93-7.82,4-8.45,5.15.71,1,.71,1-1.63.75-1.6,1.62,1.19.72,1.19.72-1.08.54-.61,1.25,6.73-1,7.06-.92c0,0-3.71.21-3.88,1.3s2.24.73,4.16.48a8.61,8.61,0,0,0,5.22-2.57c1.33-1.46,4.34-3.21,4-5.47A17.65,17.65,0,0,0,243.38,238.87Z" style="fill:#ce7a63"></path><g style="opacity:0.2"><path d="M228.78,248.71q2.79-1.26,5.64-2.33a10.57,10.57,0,0,0,.71,1.43c.14.23.43-.07.3-.29a11.4,11.4,0,0,1-1.49-4.69c0-.28-.39-.18-.36.09a10.17,10.17,0,0,0,.19,1.25.14.14,0,0,0-.11,0,19.85,19.85,0,0,0-4.42,1.88c-.21.12-.07.51.16.38a19.39,19.39,0,0,1,4.32-1.83.2.2,0,0,0,.11-.11,12.69,12.69,0,0,0,.45,1.52q-2.85,1-5.65,2.33C228.4,248.43,228.55,248.81,228.78,248.71Z"></path></g><g style="opacity:0.2"><path d="M235.91,244.4a4.83,4.83,0,0,1,5.63-1.94c.23.09.37-.32.14-.41a5.21,5.21,0,0,0-6.07,2.11A.19.19,0,1,0,235.91,244.4Z"></path></g><path d="M307,190a.68.68,0,1,1-.68-.68A.68.68,0,0,1,307,190Z" style="opacity:0.2"></path><path d="M307,194.51a.68.68,0,1,1-.68-.69A.68.68,0,0,1,307,194.51Z" style="opacity:0.2"></path><path d="M307,199a.68.68,0,1,1-.68-.68A.68.68,0,0,1,307,199Z" style="opacity:0.2"></path><polygon points="290.3 416.86 287.75 427.37 282.22 427.37 281.97 416.86 290.3 416.86" style="fill:#ff8b7b"></polygon><path d="M266.16,434.79c.3-3.42,1.8-4.44,3.66-4.56s8.82-2.43,8.82-2.43,1.44-2.17,2.71-2.61,2.5.85,2.5.85l3.47-.42s1-1.56,1.76-.2c1.1,2.13,1,8,.87,9.37Z" style="fill:#263238"></path><path d="M266.61,433.9l4.31,0,18.87-.1c.24,0,.19-.36-.05-.36h-1.28a.08.08,0,0,0,0-.05,3.5,3.5,0,0,1,1.29-5c.2-.11,0-.43-.23-.32a3.82,3.82,0,0,0-1.42,5.34h-2.66l-18.86.1C266.32,433.54,266.37,433.91,266.61,433.9Z" style="fill:#407BFF"></path><path d="M313.18,279.28a365.41,365.41,0,0,1-7.34,41.9q-1.74,7.68-4,16.38c4.07,33.62-11.86,82.19-11.86,82.19l-8.53-.19s-1.07-54.28-.07-82.7c1.65-46.56,7.32-90.91,7.32-90.91l23.24-.09S316,252.86,313.18,279.28Z" style="fill:#407BFF"></path><path d="M313.18,279.28a365.41,365.41,0,0,1-7.34,41.9c-4.89-18.62,4-58.36,4-58.36Z" style="opacity:0.2"></path><polygon points="280.5 421.57 280.23 417.91 291.61 417.91 290.97 421.57 280.5 421.57" style="fill:#263238"></polygon><polygon points="325.68 416.86 323.13 427.37 317.6 427.37 317.35 416.86 325.68 416.86" style="fill:#ff8b7b"></polygon><path d="M301.54,434.79c.3-3.42,1.8-4.44,3.66-4.56S314,427.8,314,427.8s1.44-2.17,2.71-2.61,2.5.85,2.5.85l3.47-.42s1-1.56,1.76-.2c1.11,2.13,1,8,.87,9.37Z" style="fill:#263238"></path><path d="M302,433.9l4.31,0,18.87-.1c.24,0,.19-.36-.05-.36h-1.27l0-.05a3.49,3.49,0,0,1,1.28-5c.2-.11,0-.43-.22-.32a3.82,3.82,0,0,0-1.43,5.34H320.8l-18.86.1C301.7,433.54,301.75,433.91,302,433.9Z" style="fill:#407BFF"></path><path d="M305.18,247.75s4.34,64.26,5.76,89.81c1.63,29.18,5.28,78.92,5.77,82.18h8.82c-1,1,11.32-43.66,6.35-80,4.66-34.76,10.33-60.22,3-93Z" style="fill:#407BFF"></path><polygon points="315.67 421.57 315.4 417.91 326.79 417.91 326.14 421.57 315.67 421.57" style="fill:#263238"></polygon><path d="M337.55,249.3c-18.53,6.12-49.68,4.11-49.68-.14,0-11.95,4.23-25.4,3.1-33.19-8.77-6.13-1.92-11.67-2.68-20.75a13.47,13.47,0,0,1,11.17-14.33c1.58-.27,3.22-.54,4.84-.75l1-.12a96.66,96.66,0,0,1,13-.61c1.59,0,3.23,0,4.94.05s3.38.1,5,.22a10,10,0,0,1,9.12,11.68,185.81,185.81,0,0,0-2.7,24.13c-.08,1.67-.13,3.28-.15,4.86a127.05,127.05,0,0,0,.75,16.59c0,.11,0,.21,0,.31.26,2.19.59,4.21,1,6.06.11.58.24,1.13.37,1.68C336.8,246.14,337.25,248.15,337.55,249.3Z" style="fill:#263238"></path><path d="M325.81,194l9.25,13.93c.14-1.67.31-3.38.51-5.11v0Z" style="opacity:0.2"></path><path d="M304.29,195.31a.59.59,0,1,1-1.18,0,.59.59,0,1,1,1.18,0Z" style="fill:#407BFF"></path><path d="M303.93,200.65a.59.59,0,0,1-.59.6.6.6,0,0,1-.6-.6.59.59,0,0,1,.6-.59A.58.58,0,0,1,303.93,200.65Z" style="fill:#407BFF"></path><circle cx="303.34" cy="206.09" r="0.59" style="fill:#407BFF"></circle><path d="M318.23,179.41c-4.38,7.71-14.71,12.33-14.71,12.33-1.39-3.46-1-9,.78-11.6l1-.12A96.66,96.66,0,0,1,318.23,179.41Z" style="fill:#ff8b7b"></path><path d="M312,149.15s7.91,7.56,4.27,16.13a16,16,0,0,1-8.56,8.71Z" style="fill:#263238"></path><path d="M299.33,147.26s-7.77-1.3-9.43,7.26-1.25,11.68,1,13.81c3,2.8,7.71-.25,7.71-.25Z" style="fill:#263238"></path><path d="M304.18,182.44a2.14,2.14,0,0,1-.16.35c-1.5,2.35.13,4.51,2.69,4.32a6,6,0,0,0,.74-.1,4.57,4.57,0,0,0,2.42-1.35h0a55.65,55.65,0,0,1,6.39-5.87c-3.87-2.07-5.28-9.42-5.63-14l-6,7.63-1.12,1.66a13.62,13.62,0,0,1,1.3,2.95A4.76,4.76,0,0,1,304.18,182.44Z" style="fill:#ff8b7b"></path><path d="M315.67,179.4a13.37,13.37,0,0,1,6.42,0l-5.82,10c-3.07-2.23-6.58.67-12.75,2.33A32,32,0,0,0,315.67,179.4Z" style="fill:#407BFF"></path><path d="M315.67,179.4a13.37,13.37,0,0,1,6.42,0l-5.82,10c-3.07-2.23-6.58.67-12.75,2.33A32,32,0,0,0,315.67,179.4Z" style="fill:#407BFF"></path><path d="M305.08,179.86s-3.56-.65-5.62,1a54.63,54.63,0,0,0-1.66,7.87s3.42-1.71,5.72,3C303.52,191.74,302.35,184.27,305.08,179.86Z" style="fill:#407BFF"></path><path d="M305.08,179.86s-3.56-.65-5.62,1a54.63,54.63,0,0,0-1.66,7.87s3.42-1.71,5.72,3C303.52,191.74,302.35,184.27,305.08,179.86Z" style="fill:#407BFF"></path><g style="opacity:0.2"><path d="M304.82,178a13.62,13.62,0,0,0-1.3-2.95l1.12-1.66,3.78.08A8.92,8.92,0,0,1,304.82,178Z"></path></g><path d="M311.73,157.59c.6,7.54,1,10.72-2.15,15.08-4.76,6.56-14,5.61-16.78-1.61-2.52-6.5-3.08-17.75,3.68-21.73s14.65.71,15.25,8.26" style="fill:#ff8b7b"></path><path d="M310.07,162.52c3.79-1,2.3-4.91,2.3-4.91l-5.57.86S306.29,163.52,310.07,162.52Z" style="fill:#263238"></path><path d="M294,150s.87,4.16,6,4.38,4.67,7.79,10.4,6.59,4-10,1.58-11.86S299.72,143.15,294,150Z" style="fill:#263238"></path><path d="M306,146.19s3.72-11,12.36-6.65,1.06,15.67-4.42,14.2S306,146.19,306,146.19Z" style="fill:#263238"></path><path d="M295.94,169.21a25.51,25.51,0,0,0,4.48-3.26s.54,2.86-1.38,3.92A2.33,2.33,0,0,1,295.94,169.21Z" style="fill:#fff"></path><path d="M299.32,161c.08.61-.17,1.15-.57,1.2s-.79-.39-.87-1,.16-1.15.56-1.2.79.39.88,1" style="fill:#263238"></path><path d="M293.13,162c.08.61-.17,1.14-.57,1.2s-.79-.39-.87-1,.16-1.15.56-1.21.79.4.88,1" style="fill:#263238"></path><path d="M292.43,161l-1.52-.21s.91,1,1.52.21" style="fill:#263238"></path><path d="M295.4,161.83s-.82,1.76-1.76,3.32a.92.92,0,0,0,.48,1.36,8.92,8.92,0,0,0,2,.38Z" style="fill:#ff5652"></path><path d="M315.12,162.39a4.88,4.88,0,0,1-2.57,3.06c-1.6.69-2.68-1-2.48-2.93.19-1.72,1.24-4.17,3-4s2.63,2.17,2.09,3.91" style="fill:#ff8b7b"></path><path d="M301,158.51a.39.39,0,0,1-.27-.11,2.89,2.89,0,0,0-2.43-1,.36.36,0,1,1-.13-.71,3.6,3.6,0,0,1,3.09,1.16.35.35,0,0,1,0,.51.33.33,0,0,1-.24.1" style="fill:#263238"></path><path d="M290.29,159.61A.36.36,0,0,1,290,159a3.58,3.58,0,0,1,3-1.4.36.36,0,0,1-.07.72,2.87,2.87,0,0,0-2.35,1.13.38.38,0,0,1-.25.14" style="fill:#263238"></path><path d="M298.62,160l-1.52-.22s.91,1,1.52.22" style="fill:#263238"></path><line x1="312.37" y1="157.61" x2="306.8" y2="158.48" style="fill:#263238"></line><path d="M344.89,226.63c-3.11,5-6.57,10-10,14.93l5.24,4.72a141.57,141.57,0,0,0,13.18-13.42,71.62,71.62,0,0,0,6-7.86c.47-.74.93-1.5,1.38-2.36a20,20,0,0,0,1.27-2.93,12.46,12.46,0,0,0,.51-2,9.22,9.22,0,0,0,0-3.1,11,11,0,0,0-.81-2.64,15.85,15.85,0,0,0-.82-1.65,36.05,36.05,0,0,0-3.15-4.59c-1.05-1.35-2.1-2.6-3.16-3.82-2.15-2.4-4.3-4.71-6.54-6.92-4.44-4.43-9-8.59-13.84-12.58l-9.24,10.83,13.31,12c2.18,2,4.37,4,6.41,6,1,1,2,2,3,3a33.26,33.26,0,0,1,2.32,2.73l0,0c-.06.17-.12.36-.19.54-.21.53-.46,1.11-.72,1.7A81.67,81.67,0,0,1,344.89,226.63Z" style="fill:#263238"></path><path d="M335.28,239.35s-5.91,2.2-6.82,3.35,4.89,7.69,7.14,8.6,1.1-1.8,1.1-1.8,2.91.68,4.26-1.53S340.72,239.72,335.28,239.35Z" style="fill:#ff8b7b"></path><polygon points="193.3 411.93 193.3 427.39 199.54 427.88 202.6 413.41 193.3 411.93" style="fill:#ffc3bd"></polygon><path d="M197.73,426.43s2-3.77,3.12-3.37,1.63,5,1.63,5,6.3,2.1,8.05,2.21,3.19,1.11,3.41,4.54H192.45s.15-7.75.19-9.08,1.93.33,1.93.33Z" style="fill:#263238"></path><path d="M192.69,428.66a3.22,3.22,0,0,1,1.17,4.53.16.16,0,1,0,.27.17,3.54,3.54,0,0,0-1.23-5c-.18-.11-.39.19-.21.3Z" style="fill:#fff"></path><path d="M192.66,433.56l16.86.18,3.91,0c.22,0,.27-.34,0-.34l-16.86-.18-3.92,0c-.22,0-.26.34,0,.34Z" style="fill:#fff"></path><path d="M201.55,429.39a2.2,2.2,0,0,1,3.14-.56c.16.14.37-.16.21-.29-1.11-.91-2.62-.52-3.62.68-.15.18.12.35.27.17Z" style="fill:#fff"></path><path d="M203.33,430a2.2,2.2,0,0,1,3.14-.56c.16.13.37-.16.21-.29-1.11-.91-2.62-.52-3.62.68-.15.17.12.35.27.17Z" style="fill:#fff"></path><path d="M205.17,430.51a2.19,2.19,0,0,1,3.14-.56c.16.13.37-.16.21-.29-1.11-.91-2.62-.52-3.62.67-.15.18.12.35.27.18Z" style="fill:#fff"></path><path d="M189.55,258.69c.18,2.76-.2,11.23.17,15.78.71,8.67,1.65,19.91,2.4,31.17.87,13,1.49,26.09,1.18,35.15-.8,23.27-.62,76-.62,76h10.09s11.85-52.4,14.07-76c1.85-19.55.87-69.92.56-82.1Z" style="fill:#263238"></path><path d="M189.55,258.69c.18,2.76-.2,11.23.17,15.78.71,8.67,1.65,19.91,2.4,31.17.87,13,1.49,26.09,1.18,35.15-.8,23.27-.62,76-.62,76h10.09s11.85-52.4,14.07-76c1.85-19.55.87-69.92.56-82.1Z" style="fill:#fff;opacity:0.2"></path><path d="M189.72,274.47c.71,8.67,1.65,19.91,2.4,31.17,5-14.7.35-36.92.35-36.92Z" style="opacity:0.2"></path><polygon points="191.8 417.14 203.64 417.14 204.51 413.36 191.49 413.2 191.8 417.14" style="fill:#407BFF"></polygon><polygon points="141.71 409.04 139.35 424.32 145.44 425.77 150.67 411.93 141.71 409.04" style="fill:#ffc3bd"></polygon><path d="M143.87,424.05s2.52-3.42,3.6-2.85.85,5.17.85,5.17,5.9,3,7.62,3.42,3,1.58,2.68,5l-21.24-3.28s1.33-7.64,1.57-8.95,1.85.63,1.85.63Z" style="fill:#263238"></path><path d="M138.55,425.49a3.21,3.21,0,0,1,.46,4.65c-.14.18.1.39.24.21a3.53,3.53,0,0,0-.45-5.12c-.16-.14-.41.12-.25.26Z" style="fill:#fff"></path><path d="M137.77,430.33l16.63,2.74,3.87.64c.22,0,.31-.29.1-.33l-16.64-2.75-3.87-.64c-.21,0-.31.3-.09.34Z" style="fill:#fff"></path><path d="M147.2,427.56a2.19,2.19,0,0,1,3.18-.07c.14.15.39-.11.25-.26-.95-1.06-2.5-.91-3.68.12-.17.15.07.36.25.21Z" style="fill:#fff"></path><path d="M148.87,428.38a2.18,2.18,0,0,1,3.18-.06c.14.15.39-.11.26-.26-1-1.07-2.51-.91-3.68.11-.18.16.07.37.24.21Z" style="fill:#fff"></path><path d="M150.61,429.22a2.18,2.18,0,0,1,3.18-.07c.14.15.39-.11.25-.26-1-1.07-2.51-.91-3.68.12-.17.15.07.36.25.21Z" style="fill:#fff"></path><path d="M177.25,342.83c-6.24,22.85-27.2,72.27-27.2,72.27l-10-1.73s10.36-51.42,15.13-74.2c4.31-20.56,9-67.77,10.57-81.83l33.38,3c-1.78,12-16.75,63.53-21.93,82.48Z" style="fill:#263238"></path><path d="M177.25,342.83c-6.24,22.85-27.2,72.27-27.2,72.27l-10-1.73s10.36-51.42,15.13-74.2c4.31-20.56,9-67.77,10.57-81.83l33.38,3c-1.78,12-16.75,63.53-21.93,82.48Z" style="fill:#fff;opacity:0.2"></path><polygon points="139.18 413.57 150.84 415.6 152.35 412.03 139.35 409.66 139.18 413.57" style="fill:#407BFF"></polygon><path d="M222.45,189.83c-.56,4.83-1.48,15-2.38,26.51-.33,4.34-.67,8.89-1,13.39-.36,5.21-.66,10.21-.89,14.76-.09,1.84-.17,3.61-.24,5.28-.32,8.29-.32,14.34.14,16.16-25.83,10.46-53.89-3.06-53.89-3.06,1.66-13.52,3.33-28.89,3.33-28.89.79-5.76,1.55-11.58,2.23-17.07.05-.44.11-.89.16-1.32.33-2.7.63-5.3.91-7.76l.1-.91c.54-4.85,1-9.14,1.2-12.57.46-6.47,4.38-12.48,10.23-13.56,1.77-.33,3.68-.62,5.66-.84.47-.07,1-.11,1.43-.16a122.13,122.13,0,0,1,16.83-.69l.81,0,.43,0c.23,0,.47,0,.7,0a63.78,63.78,0,0,1,6.67.62A8.91,8.91,0,0,1,222.45,189.83Z" style="fill:#407BFF"></path><path d="M205,193.2a.83.83,0,1,1-.85-.8A.83.83,0,0,1,205,193.2Z" style="fill:#fff;opacity:0.30000000000000004"></path><path d="M205.13,198.32a.83.83,0,1,1-.85-.8A.83.83,0,0,1,205.13,198.32Z" style="fill:#fff;opacity:0.30000000000000004"></path><path d="M205.3,203.44a.83.83,0,1,1-.85-.8A.83.83,0,0,1,205.3,203.44Z" style="fill:#fff;opacity:0.30000000000000004"></path><path d="M189.55,203.81s1,22.28,2.72,24,22.66,10.14,22.66,10.14c-12-1.39-22.71-3.28-28-7.32C185,225.23,187.77,213.89,189.55,203.81Z" style="opacity:0.2"></path><path d="M218.21,244.49c-.09,1.84-.17,3.61-.24,5.28-7.39-.48-34.83-.86-42.37-11.7-4.41-6.35-2.25-32.24-2.25-32.24a54.58,54.58,0,0,0,38.35,36.95Z" style="opacity:0.2"></path><path d="M259.07,214.91c-3.22-.19-6.44-.37-9.55-.66-1.53-.15-3.08-.31-4.39-.51l-.61-.11a2.31,2.31,0,0,0-.26-.27c-.67-.64-1.7-1.71-2.63-2.8s-1.93-2.3-2.9-3.51c-1.95-2.41-3.88-4.94-5.81-7.48-3.84-5.09-7.71-10.32-11.61-15.36l-13,9.38c3.82,5.54,7.85,10.75,12.18,15.9,2.16,2.57,4.39,5.09,6.75,7.61,1.2,1.25,2.42,2.48,3.74,3.74a41.33,41.33,0,0,0,4.58,3.86c.48.34,1,.71,1.75,1.11l.59.32.74.33c.24.1.64.24,1,.34l.35.09.3.07a19.72,19.72,0,0,0,3.56.44c1.94.1,3.67,0,5.41,0,3.44-.15,6.77-.4,10.09-.74q6.1-.62,12.13-1.48l0,0,1.09-.49,1-.47h0a9.74,9.74,0,0,0,.58-.92c.67-1.12,1.38-2.49,2.06-3.89.54-1.1,1.09-2.24,1.61-3.4C271.57,215.54,265.27,215.26,259.07,214.91Zm-15.24-1.48s0,0,0,0h.06a2.9,2.9,0,0,1,.38.12l.11,0A2.12,2.12,0,0,1,243.83,213.43Z" style="fill:#407BFF"></path><polygon points="223.02 212.41 220.76 196.76 220.3 209.25 223.02 212.41" style="opacity:0.2"></polygon><path d="M207.62,144.41a14.23,14.23,0,0,0-11.23,1.37c-2.2,1.33-4.06,3.26-3.84,6a152.78,152.78,0,0,0,2.94,16.82l20.78-11s1.23-5.4-1.49-8.63A13.87,13.87,0,0,0,207.62,144.41Z" style="fill:#263238"></path><path d="M199.6,144.39a9.37,9.37,0,0,0-6.93,3c-2.27,2.65.53,9.45.53,9.45Z" style="fill:#263238"></path><path d="M197.49,145.19s.8-2.79,9.28-2.79,13.65-.1,12.58,4.79c-1.41,6.48-11.78,4.11-11.78,4.11Z" style="fill:#263238"></path><path d="M205.33,175.86h0l0,.07-1.13,3.59a12.61,12.61,0,0,0-.13,2.2,12.78,12.78,0,0,0,.19,1.77c.75,1.13,1,3.63-1.82,3.51-3.59-.14-10-5.35-10.14-6.94,1.88-4.82,3.58-10.81,3.53-15.5l3.88,4.61Z" style="fill:#ffc3bd"></path><g style="opacity:0.2"><path d="M205.3,175.94l-1.13,3.59c-2.19-1.12-4.44-3.44-4.86-5.85-.3-1.73.55-3.31,1.25-3.37Z"></path></g><path d="M214.72,168.75c-.25.78-.52,1.54-.81,2.3-2.57,6.67-11,6.91-15.93,1.68l0,0a13.55,13.55,0,0,1-1.24-1.53c-3.1-4.49-2.12-7.8-1.28-15.36a10.37,10.37,0,0,1,15.87-7.73C217.49,152,217.21,160.94,214.72,168.75Z" style="fill:#ffc3bd"></path><path d="M205.44,165.38a51.47,51.47,0,0,0,4.91,2.48,2.75,2.75,0,0,1-4,.61A2.87,2.87,0,0,1,205.44,165.38Z" style="fill:#fff"></path><path d="M211.92,147.35c-3.51-2.59-10.75-3.41-13.84,0s-2.75,9.14-2.75,9.14a2.45,2.45,0,0,0,.65,1.68,2.36,2.36,0,0,1,.24.27l3.74.38c.2-1.55.64-4.37,1.67-4.58,1.94-.4.47-2.47.82-3.7,1.11-4,12-2,13.55,3.93A11.62,11.62,0,0,0,211.92,147.35Z" style="fill:#263238"></path><path d="M191.36,160.25a7.24,7.24,0,0,0,2.67,4.83c2,1.57,4,0,4.22-2.37.23-2.15-.53-5.55-2.92-6.19a3.25,3.25,0,0,0-4,3.73" style="fill:#ffc3bd"></path><path d="M206.67,159.73c-.1.58.13,1.11.51,1.17s.77-.35.87-.93-.13-1.11-.51-1.17-.77.35-.87.93" style="fill:#263238"></path><path d="M212.82,160.78c-.1.58.12,1.11.5,1.17s.77-.35.87-.93-.12-1.11-.5-1.17-.77.35-.87.93" style="fill:#263238"></path><path d="M215.32,158.88a.31.31,0,0,1-.24-.2,1.54,1.54,0,0,0-.78-1,1.82,1.82,0,0,0-1.24,0,.31.31,0,0,1-.39-.17.3.3,0,0,1,.17-.39,2.35,2.35,0,0,1,1.71,0,2.12,2.12,0,0,1,1.1,1.31.3.3,0,0,1-.18.39A.38.38,0,0,1,215.32,158.88Z" style="fill:#263238"></path><path d="M205.27,157.14a.35.35,0,0,1-.14-.06.32.32,0,0,1-.07-.45,2.53,2.53,0,0,1,1.57-1,2.3,2.3,0,0,1,1.78.54.33.33,0,1,1-.4.52,1.69,1.69,0,0,0-1.27-.41,2,2,0,0,0-1.15.71A.32.32,0,0,1,205.27,157.14Z" style="fill:#263238"></path><path d="M210.67,159.63a18.58,18.58,0,0,0,1.39,4.44c.93,1.8-2.31,1.31-2.31,1.31Z" style="fill:#ed847e"></path><path d="M226.83,240.9l-.73,7.17a159.61,159.61,0,0,1-22.25-1.39,97.5,97.5,0,0,1-11.29-2.12,47.24,47.24,0,0,1-5.86-1.83,32,32,0,0,1-3.12-1.39,19.93,19.93,0,0,1-3.4-2.16c-.31-.26-.6-.49-.92-.8l-.48-.45-.48-.53a14.17,14.17,0,0,1-.94-1.21,12,12,0,0,1-.88-1.56,10.48,10.48,0,0,1-.69-1.91l-.23-.91c-.15-.59-.23-1.09-.35-1.64-.4-2.11-.66-4-.88-6-.43-3.82-.65-7.55-.81-11.26l-.16-5.55,0-5.51c0-3.7.11-7.33.37-11.06l16,.58c0,7.06-.17,14.25-.24,21.29,0,3.52,0,7,0,10.42,0,1.68.11,3.36.26,4.82,0,.31,0,.66.09.94a16.07,16.07,0,0,0,2.32,1.44,45.4,45.4,0,0,0,4.3,1.94c3.08,1.22,6.38,2.28,9.73,3.28C212.92,237.51,219.93,239.23,226.83,240.9Z" style="fill:#407BFF"></path><path d="M225.76,241.06s7.44-1.95,9-1.63c1.76.36.95,9.63-1.33,10.9s-7.94-2.84-7.94-2.84C224.19,244.47,224.6,242,225.76,241.06Z" style="fill:#ffc3bd"></path><path d="M225.76,241.06a10.73,10.73,0,0,1,3.4-2.43c1.67-.59,3.31-1.46,4.07-1.16s-1.84,2.3-1.84,2.3Z" style="fill:#ffc3bd"></path><path d="M234.77,239.43s4.57,1.29,6,3.18-2.64.74-2.64.74,4.76,1.74,2.8,5.38c-1,1.78-6.46,2.13-9,1.81C232,250.54,232,242.79,234.77,239.43Z" style="fill:#ffc3bd"></path><path d="M193.37,177.07a6.67,6.67,0,0,0-5.31,3.23l9.86,11.6s-.07-4.19,5.34-5C203.26,187,196,181.67,193.37,177.07Z" style="fill:#407BFF"></path><path d="M193.37,177.07a6.67,6.67,0,0,0-5.31,3.23l9.86,11.6s-.07-4.19,5.34-5C203.26,187,196,181.67,193.37,177.07Z" style="fill:#fff;opacity:0.30000000000000004"></path><path d="M203.26,187s.63-6.51,1.06-7.9l.56-1.78s3.88.06,5.21,2l-.52,9.92A11.63,11.63,0,0,0,203.26,187Z" style="fill:#407BFF"></path><path d="M203.26,187s.63-6.51,1.06-7.9l.56-1.78s3.88.06,5.21,2l-.52,9.92A11.63,11.63,0,0,0,203.26,187Z" style="fill:#fff;opacity:0.30000000000000004"></path></g></svg>
